<svg id="Layer_1" data-name="Layer 1" xmlns="http://www.w3.org/2000/svg" viewBox="0 0 792 612">
  <defs>
    <style>
      .cls-1, .cls-8 {
        fill: #fff;
      }

      .cls-13, .cls-2, .cls-5, .cls-6, .cls-7 {
        fill: #231f20;
      }

      .cls-3 {
        fill: #010101;
      }

      .cls-4 {
        fill: none;
        stroke: #010101;
        stroke-linecap: round;
        stroke-linejoin: round;
        stroke-width: 2px;
        fill-rule: evenodd;
      }

      .cls-10, .cls-12, .cls-5 {
        font-size: 11px;
      }

      .cls-5, .cls-7, .cls-8 {
        font-family: SegoeUI, Segoe UI;
      }

      .cls-6 {
        font-size: 16.05px;
      }

      .cls-13, .cls-6 {
        font-family: SegoeUI-Semibold, Segoe UI;
        font-weight: 600;
      }

      .cls-7 {
        font-size: 10.18px;
      }

      .cls-8 {
        font-size: 22px;
      }

      .cls-9 {
        letter-spacing: 0.07em;
      }

      .cls-10 {
        font-family: SegoeUI-Semilight, Segoe UI;
        font-weight: 300;
      }

      .cls-11 {
        letter-spacing: -0.01em;
      }

      .cls-12 {
        letter-spacing: 0.05em;
      }

      .cls-13 {
        font-size: 36px;
      }
    </style>
  </defs>
  <rect id="Page" class="cls-1" width="792" height="612"/>
  <image id="MapCanvas" href="" x="14.4" y="14.4" height="777.6" width="597.6"/>
  <rect id="AttributionBground" class="cls-1" x="15.84" y="567.36" width="270" height="28.8" rx="2.16"/>
  <rect id="TitleBground" class="cls-1" x="15.84" y="86.4" width="270" height="21.6"/>
  <rect id="LogoBground" class="cls-2" x="15.84" y="15.84" width="270" height="61.2" rx="2.16"/>
  <g id="NorthArrow">
    <path class="cls-3" d="M773,139.65a.89.89,0,0,1-.89-.9V22.63c0-.16,0-.47-.45-.47a.61.61,0,0,0-.64.4C766.73,30.49,753.29,53,753.29,53a.91.91,0,0,1-1.21.32L749.6,52a.9.9,0,0,1-.33-1.21l20.39-34.16a1.74,1.74,0,0,1,1.34-.77h4.27a.89.89,0,0,1,.89.89v122a.89.89,0,0,1-.89.9Z"/>
    <path class="cls-3" d="M752,119.83a.78.78,0,0,1-.22-.55V98.35a.83.83,0,0,1,.21-.58.74.74,0,0,1,.56-.22H755a.93.93,0,0,1,.58.14,1.76,1.76,0,0,1,.35.37l9.26,14.41V98.35a.83.83,0,0,1,.21-.58.74.74,0,0,1,.56-.22h2.68a.75.75,0,0,1,.8.72.11.11,0,0,1,0,.08v20.9a.77.77,0,0,1-.22.58.75.75,0,0,1-.55.23h-2.5a1.12,1.12,0,0,1-.93-.52L756,105.46V119.3a.7.7,0,0,1-.23.56.75.75,0,0,1-.57.21h-2.69A.73.73,0,0,1,752,119.83Z"/>
  </g>
  <polyline id="ScaleBar" class="cls-4" points="614.16 587.16 614.16 596.16 776.16 596.16 776.16 587.16"/>
  <text id="ScaleText" class="cls-5" transform="translate(684.62 592.24)">1 mi</text>
  <text id="TitleText" class="cls-6" transform="translate(135.05 102.63)">Title</text>
  <text class="cls-7" transform="translate(124.9 580.29) scale(0.98 1)">Attributions</text>
  <text id="LogoText" class="cls-8" transform="translate(97.59 38.97)"><tspan class="cls-9">City of Newark</tspan><tspan class="cls-10"><tspan x="0" y="14">Economic &amp; Housing De</tspan><tspan class="cls-11" x="115.13" y="14">v</tspan><tspan x="120.19" y="14">elopment</tspan></tspan><tspan class="cls-12"><tspan x="33.78" y="28">Planning &amp; Zoning</tspan></tspan></text>
  <circle id="LogoCircle" class="cls-1" cx="59.76" cy="46.44" r="23.76"/>
  <text id="LogoN" class="cls-13" transform="translate(45.95 58.68)">N</text>
</svg>
